# xmcd
#
# Track frame offsets:
#	150
#	20487
#	29422
#	39212
#	54380
#	69597
#	82207
#	101315
#	114397
#	124612
#	137955
#	148007
#	159035
#	171715
#	183435
#	187365
#	205385
#	215540
#	241620
#	255222
#
# Disc length: 3557
#
# Revision: 2
# Processed by: cddbd v1.5.1PL0 Copyright (c) Steve Scherf et al.
# Submitted via: OrangeCD 4.2
# Normalized: r0:DSETVAR1,TDELIM( - ),TSWAP
#
DISCID=1c0de314
DTITLE=Various Artist - Golden Country Vol 3 - Love Hurts
DYEAR=1900
DGENRE=Country
TTITLE0=Gram Parsons and Emmylou Harris - Love Hurts
TTITLE1=Sandy Posey - Born a Woman
TTITLE2=Dave Duddley - Cowboy Boots
TTITLE3=Don Fardon - Indian Reservaton
TTITLE4=Kenny Rogers - For the Good Times
TTITLE5=Freddy Fender - Silver Wings
TTITLE6=Dave Travis - Sweet Country Music
TTITLE7=Donna Fargo - Daddy
TTITLE8=Barbara Mandrell - Kaw-Liga
TTITLE9=Don Williams - Ruby Tuesday
TTITLE10=Buck Owens - Rhythm and Booze
TTITLE11=Carl Perkins - Dixie Friends
TTITLE12=Kitty Wells - Making Believe
TTITLE13=Patsy Cline - Today Tommorrow and Forever
TTITLE14=Charley Pride - San Antone
TTITLE15=Rick Nelson - Garden Party
TTITLE16=B. J. Thomas - Walking Back
TTITLE17=My Whole World - Sweet Nothing's - End of the World - All Alone am I - Brenda Lee - Medley: Jambalaya, is it True
TTITLE18=Freddy Fender - Baby I Want To Love You
TTITLE19=Don David Jnr. - Country Kings
EXTD=
EXTT0=
EXTT1=
EXTT2=
EXTT3=
EXTT4=
EXTT5=
EXTT6=
EXTT7=
EXTT8=
EXTT9=
EXTT10=
EXTT11=
EXTT12=
EXTT13=
EXTT14=
EXTT15=
EXTT16=
EXTT17=
EXTT18=
EXTT19=
PLAYORDER=
